<svg width="38" height="34" viewBox="0 0 38 34" fill="none" xmlns="http://www.w3.org/2000/svg">
<path d="M33.7335 4.68345C32.8822 3.83179 31.8715 3.15619 30.759 2.69525C29.6466 2.23432 28.4543 1.99707 27.2501 1.99707C26.046 1.99707 24.8536 2.23432 23.7412 2.69525C22.6288 3.15619 21.618 3.83179 20.7668 4.68345L19.0001 6.45011L17.2335 4.68345C15.514 2.96396 13.1818 1.99796 10.7501 1.99796C8.3184 1.99796 5.98627 2.96396 4.26678 4.68345C2.5473 6.40293 1.5813 8.73506 1.5813 11.1668C1.5813 13.5985 2.5473 15.9306 4.26678 17.6501L6.03345 19.4168L19.0001 32.3834L31.9668 19.4168L33.7335 17.6501C34.5851 16.7989 35.2607 15.7881 35.7216 14.6757C36.1826 13.5633 36.4198 12.3709 36.4198 11.1668C36.4198 9.96263 36.1826 8.77029 35.7216 7.65785C35.2607 6.54542 34.5851 5.53471 33.7335 4.68345V4.68345Z" stroke="#FF6464" stroke-width="2" stroke-linecap="round" stroke-linejoin="round"/>
</svg>
